<svg xmlns="http://www.w3.org/2000/svg" xmlns:xlink="http://www.w3.org/1999/xlink" width="224.676" height="270.579" viewBox="0 0 224.676 270.579">
  <defs>
    <linearGradient id="linear-gradient" y1="0.5" x2="1" y2="0.5" gradientUnits="objectBoundingBox">
      <stop offset="0" stop-color="#fd7e32"/>
      <stop offset="0.5" stop-color="#ff5400"/>
      <stop offset="1" stop-color="#d83c02"/>
    </linearGradient>
    <linearGradient id="linear-gradient-3" x1="0" y1="0.5" x2="1" y2="0.5" xlink:href="#linear-gradient"/>
    <linearGradient id="linear-gradient-7" x1="-0.277" y1="0.5" x2="1.012" y2="0.5" gradientUnits="objectBoundingBox">
      <stop offset="0" stop-color="#fd7e32"/>
      <stop offset="0.554" stop-color="#ff5400"/>
      <stop offset="1" stop-color="#d83c02"/>
    </linearGradient>
    <linearGradient id="linear-gradient-8" x1="-1.059" y1="0.5" x2="1" y2="0.5" gradientUnits="objectBoundingBox">
      <stop offset="0" stop-color="#ff5400"/>
      <stop offset="0.123" stop-color="#f34c00"/>
      <stop offset="0.351" stop-color="#e34301"/>
      <stop offset="0.616" stop-color="#da3d01"/>
      <stop offset="1" stop-color="#d83c02"/>
    </linearGradient>
    <linearGradient id="linear-gradient-9" y1="0.5" x2="1.361" y2="0.5" gradientUnits="objectBoundingBox">
      <stop offset="0" stop-color="#fd7e32"/>
      <stop offset="0.659" stop-color="#ff5400"/>
      <stop offset="1" stop-color="#d83c02"/>
    </linearGradient>
    <linearGradient id="linear-gradient-10" x1="-0.156" y1="0.5" x2="1.16" y2="0.5" gradientUnits="objectBoundingBox">
      <stop offset="0" stop-color="#fd7e32"/>
      <stop offset="0.244" stop-color="#ff5400"/>
      <stop offset="1" stop-color="#d83c02"/>
    </linearGradient>
    <linearGradient id="linear-gradient-11" x1="-0.016" y1="0.5" x2="1.466" y2="0.5" gradientUnits="objectBoundingBox">
      <stop offset="0" stop-color="#fd7e32"/>
      <stop offset="0.517" stop-color="#fd7c30"/>
      <stop offset="0.703" stop-color="#fd7629"/>
      <stop offset="0.836" stop-color="#fd6c1d"/>
      <stop offset="0.942" stop-color="#fe5e0c"/>
      <stop offset="1" stop-color="#ff5400"/>
    </linearGradient>
  </defs>
  <g id="Group_3" data-name="Group 3" transform="translate(-187.955 -197)">
    <g id="Group_1" data-name="Group 1">
      <path id="Path_1" data-name="Path 1" d="M212.275,418.478V369.384h3.249v49.094a11.743,11.743,0,0,0,2.058,2.779,11.025,11.025,0,0,0,15.468-.054,10.386,10.386,0,0,0,3.267-7.707V369.384h3.249v44.4a13.592,13.592,0,0,1-4.151,9.674,14.295,14.295,0,0,1-20.18.036,12.6,12.6,0,0,1-1.335-1.48,12.525,12.525,0,0,1-1.336,1.48,13.79,13.79,0,0,1-10.071,4.151,14.309,14.309,0,0,1-14.259-13.861v-44.4h3.249V413.5a10.386,10.386,0,0,0,3.267,7.707,11.025,11.025,0,0,0,15.468.054A11.711,11.711,0,0,0,212.275,418.478Z" stroke="#707070" stroke-miterlimit="10" stroke-width="0.558" fill="url(#linear-gradient)"/>
      <path id="Path_2" data-name="Path 2" d="M253.608,420.5a15.616,15.616,0,0,0,10.9,4.188,15.789,15.789,0,0,0,11.587-4.8q.614-.612,1.155-1.263l3.429,1.227a20.378,20.378,0,0,1-2.129,2.491,19.808,19.808,0,1,1-1.733-29.636q.867.721,1.733,1.588.324.324.614.65l-2.455,2.454Zm20.72-25.3a16.379,16.379,0,0,0-22.922,22.922Z" stroke="#707070" stroke-miterlimit="10" stroke-width="0.558" fill="url(#linear-gradient)"/>
      <path id="Path_3" data-name="Path 3" d="M292.594,369.384v57.757h-3.249V369.384Z" stroke="#707070" stroke-miterlimit="10" stroke-width="0.558" fill="url(#linear-gradient-3)"/>
      <path id="Path_4" data-name="Path 4" d="M316.166,423.965l-8.014,16.713h-3.176l9.566-20.071-13.826-28.914H304.4l11.768,25.413,11.768-25.413h3.646L316.166,424Z" stroke="#707070" stroke-miterlimit="10" stroke-width="0.558" fill="url(#linear-gradient)"/>
      <path id="Path_5" data-name="Path 5" d="M342.951,399.6v27.543H339.7V391.693h3.249v2.274a14.215,14.215,0,0,1,10.324-4.4,13.644,13.644,0,0,1,14.259,13.862v23.716h-3.249V403.714a10.388,10.388,0,0,0-3.267-7.708,11.027,11.027,0,0,0-15.468-.054A12.184,12.184,0,0,0,342.951,399.6Z" stroke="#707070" stroke-miterlimit="10" stroke-width="0.558" fill="url(#linear-gradient)"/>
      <path id="Path_6" data-name="Path 6" d="M385.114,420.5a15.614,15.614,0,0,0,10.9,4.188,15.792,15.792,0,0,0,11.588-4.8q.613-.612,1.155-1.263l3.429,1.227a20.469,20.469,0,0,1-2.129,2.491,19.808,19.808,0,1,1-1.733-29.636q.865.721,1.733,1.588.324.324.613.65l-2.455,2.454Zm20.72-25.3a16.379,16.379,0,0,0-22.922,22.922Z" stroke="#707070" stroke-miterlimit="10" stroke-width="0.558" fill="url(#linear-gradient)"/>
    </g>
    <text id="SOFTWARE_ENGINEERING" data-name="SOFTWARE ENGINEERING" transform="translate(207.276 464.579)" font-size="11.754" font-family="SegoeUI, Segoe UI" letter-spacing="0.2em" opacity="0.61"><tspan x="0" y="0">SOFTWARE ENGINEERING</tspan></text>
    <g id="Group_2" data-name="Group 2">
      <path id="Path_7" data-name="Path 7" d="M350.78,327.324a74.5,74.5,0,0,0,23.789-40.392,1.941,1.941,0,0,0-1.193-2.222L268.008,244.025a1.933,1.933,0,0,0-2.045,3.187l82.187,80.046A1.938,1.938,0,0,0,350.78,327.324Z" fill="url(#linear-gradient-7)"/>
      <path id="Path_8" data-name="Path 8" d="M306.121,200.3l65.171,65.171a1.935,1.935,0,0,0,3.294-1.554,74.587,74.587,0,0,0-66.912-66.911A1.935,1.935,0,0,0,306.121,200.3Z" fill="url(#linear-gradient-8)"/>
      <path id="Path_9" data-name="Path 9" d="M237.329,236.212a1.93,1.93,0,0,0-3.054.474,74.233,74.233,0,0,0-8.466,34.535v.822a1.864,1.864,0,0,0,.985,1.644l96.583,51.621a1.933,1.933,0,0,0,2.26-3.089Z" fill="url(#linear-gradient-9)"/>
      <path id="Path_10" data-name="Path 10" d="M286.716,197.908a74.444,74.444,0,0,0-41.406,23.041,1.93,1.93,0,0,0,.742,3.1l102.207,39.465a1.933,1.933,0,0,0,2.063-3.17l-61.893-61.893A1.932,1.932,0,0,0,286.716,197.908Z" fill="url(#linear-gradient-10)"/>
      <path id="Path_11" data-name="Path 11" d="M300.375,345.787a74.45,74.45,0,0,0,23.529-3.792,1.934,1.934,0,0,0,.312-3.543l-92.984-49.7a1.935,1.935,0,0,0-2.771,2.231A74.6,74.6,0,0,0,300.375,345.787Z" fill="url(#linear-gradient-11)"/>
    </g>
  </g>
</svg>
